<svg width="77" height="77" viewBox="0 0 77 77" fill="none" xmlns="http://www.w3.org/2000/svg">
<path d="M62.5625 16.8438H54.2248L50.1252 10.6958C49.9056 10.3666 49.6081 10.0966 49.2592 9.90986C48.9103 9.72308 48.5207 9.62524 48.125 9.625H28.875C28.4793 9.62524 28.0897 9.72308 27.7408 9.90986C27.3919 10.0966 27.0944 10.3666 26.8748 10.6958L22.7721 16.8438H14.4375C12.523 16.8438 10.6869 17.6043 9.33307 18.9581C7.97929 20.3119 7.21875 22.148 7.21875 24.0625V57.75C7.21875 59.6645 7.97929 61.5006 9.33307 62.8544C10.6869 64.2082 12.523 64.9688 14.4375 64.9688H62.5625C64.477 64.9688 66.3131 64.2082 67.6669 62.8544C69.0207 61.5006 69.7812 59.6645 69.7812 57.75V24.0625C69.7812 22.148 69.0207 20.3119 67.6669 18.9581C66.3131 17.6043 64.477 16.8438 62.5625 16.8438ZM64.9688 57.75C64.9688 58.3882 64.7152 59.0002 64.264 59.4515C63.8127 59.9027 63.2007 60.1562 62.5625 60.1562H14.4375C13.7993 60.1562 13.1873 59.9027 12.736 59.4515C12.2848 59.0002 12.0312 58.3882 12.0312 57.75V24.0625C12.0312 23.4243 12.2848 22.8123 12.736 22.361C13.1873 21.9098 13.7993 21.6562 14.4375 21.6562H24.0625C24.4588 21.6565 24.8489 21.5589 25.1984 21.3721C25.5479 21.1853 25.8458 20.9151 26.0657 20.5855L30.1623 14.4375H46.8347L50.9343 20.5855C51.1542 20.9151 51.4521 21.1853 51.8016 21.3721C52.1511 21.5589 52.5412 21.6565 52.9375 21.6562H62.5625C63.2007 21.6562 63.8127 21.9098 64.264 22.361C64.7152 22.8123 64.9688 23.4243 64.9688 24.0625V57.75ZM38.5 26.4688C35.8825 26.4688 33.3238 27.2449 31.1474 28.6991C28.971 30.1534 27.2747 32.2203 26.273 34.6385C25.2714 37.0568 25.0093 39.7178 25.5199 42.285C26.0306 44.8522 27.291 47.2104 29.1419 49.0612C30.9927 50.9121 33.3509 52.1726 35.9181 52.6832C38.4853 53.1939 41.1463 52.9318 43.5646 51.9301C45.9828 50.9284 48.0498 49.2321 49.504 47.0557C50.9582 44.8794 51.7344 42.3206 51.7344 39.7031C51.7304 36.1944 50.3348 32.8305 47.8537 30.3494C45.3727 27.8683 42.0088 26.4727 38.5 26.4688ZM38.5 48.125C36.8343 48.125 35.206 47.6311 33.8211 46.7057C32.4361 45.7802 31.3566 44.4649 30.7192 42.926C30.0818 41.3871 29.915 39.6938 30.2399 38.0601C30.5649 36.4264 31.367 34.9258 32.5448 33.748C33.7227 32.5701 35.2233 31.768 36.857 31.4431C38.4907 31.1181 40.184 31.2849 41.7229 31.9223C43.2618 32.5598 44.5771 33.6392 45.5025 35.0242C46.4279 36.4092 46.9219 38.0374 46.9219 39.7031C46.9219 41.9367 46.0346 44.0789 44.4552 45.6583C42.8758 47.2377 40.7336 48.125 38.5 48.125Z" fill="white"/>
</svg>
