<svg width="77" height="77" viewBox="0 0 77 77" fill="none" xmlns="http://www.w3.org/2000/svg">
<g clip-path="url(#clip0_1_10)">
<path d="M68.7011 21.3889H8.29888C7.23242 21.3889 6.20963 21.8125 5.45553 22.5666C4.70142 23.3207 4.27777 24.3435 4.27777 25.41V64.4233C4.27777 65.4898 4.70142 66.5126 5.45553 67.2667C6.20963 68.0208 7.23242 68.4444 8.29888 68.4444H68.7011C69.7676 68.4444 70.7904 68.0208 71.5445 67.2667C72.2986 66.5126 72.7222 65.4898 72.7222 64.4233V25.41C72.7222 24.3435 72.2986 23.3207 71.5445 22.5666C70.7904 21.8125 69.7676 21.3889 68.7011 21.3889ZM68.4444 64.1667H8.55555V25.6667H68.4444V64.1667Z" fill="white"/>
<path d="M18.3089 41.6014C19.578 41.6014 20.8186 41.2251 21.8738 40.52C22.929 39.8149 23.7514 38.8128 24.2371 37.6403C24.7228 36.4678 24.8498 35.1776 24.6023 33.9329C24.3547 32.6882 23.7435 31.5449 22.8461 30.6475C21.9488 29.7501 20.8054 29.139 19.5607 28.8914C18.316 28.6438 17.0258 28.7708 15.8533 29.2565C14.6808 29.7422 13.6787 30.5646 12.9736 31.6198C12.2685 32.675 11.8922 33.9156 11.8922 35.1847C11.8922 36.8865 12.5683 38.5186 13.7716 39.722C14.975 40.9254 16.6071 41.6014 18.3089 41.6014ZM18.3089 31.7625C18.9891 31.7455 19.659 31.9317 20.2329 32.2972C20.8068 32.6628 21.2587 33.1911 21.5309 33.8147C21.8031 34.4384 21.8832 35.129 21.761 35.7984C21.6388 36.4678 21.3198 37.0855 20.8447 37.5727C20.3697 38.0599 19.7602 38.3945 19.0942 38.5336C18.4281 38.6727 17.7357 38.6101 17.1053 38.3538C16.475 38.0975 15.9354 37.6591 15.5554 37.0946C15.1755 36.5301 14.9724 35.8652 14.9722 35.1847C14.9719 34.2917 15.3207 33.434 15.9441 32.7946C16.5675 32.1552 17.4162 31.7848 18.3089 31.7625Z" fill="white"/>
<path d="M16.8972 59.8889L29.7306 47.0556L36.5322 53.8572L30.5006 59.8889H34.7783L50.7345 43.9328L64.1667 57.2581V52.9803L51.7611 40.6389C51.4767 40.3568 51.0923 40.1985 50.6917 40.1985C50.2911 40.1985 49.9067 40.3568 49.6222 40.6389L38.5856 51.6756L30.7358 43.8472C30.4514 43.5651 30.067 43.4068 29.6664 43.4068C29.2658 43.4068 28.8814 43.5651 28.597 43.8472L12.6622 59.8889H16.8972Z" fill="white"/>
<path d="M64.4661 6.41666C64.4661 5.84939 64.2408 5.30536 63.8396 4.90424C63.4385 4.50312 62.8945 4.27777 62.3272 4.27777H15.2717C14.7044 4.27777 14.1604 4.50312 13.7592 4.90424C13.3581 5.30536 13.1328 5.84939 13.1328 6.41666V8.55555H64.4661V6.41666Z" fill="white"/>
<path d="M68.7011 14.9722C68.7011 14.4049 68.4758 13.8609 68.0746 13.4598C67.6735 13.0587 67.1295 12.8333 66.5622 12.8333H10.9511C10.3838 12.8333 9.83981 13.0587 9.43869 13.4598C9.03757 13.8609 8.81223 14.4049 8.81223 14.9722V17.1111H68.7011V14.9722Z" fill="white"/>
</g>
<defs>
<clipPath id="clip0_1_10">
<rect width="77" height="77" fill="white"/>
</clipPath>
</defs>
</svg>
